<?xml version="1.0" encoding="UTF-8" standalone="no"?>
<!DOCTYPE svg PUBLIC "-//W3C//DTD SVG 1.1//EN" "http://www.w3.org/Graphics/SVG/1.1/DTD/svg11.dtd">
<svg xmlns="http://www.w3.org/2000/svg" version="1.1" viewBox="0.00 0.00 200.00 200.00">
<g stroke-width="2.00" fill="none" stroke-linecap="butt">
<path stroke="#8cc8ff" vector-effect="non-scaling-stroke" d="
  M 133.18 47.23
  C 140.07 41.98 139.95 36.15 136.08 28.62
  Q 135.81 28.08 135.28 28.36
  C 129.68 31.30 125.42 36.35 127.10 43.11
  Q 127.41 44.34 126.60 43.36
  Q 116.90 31.65 102.31 30.33
  C 81.47 28.45 63.86 45.05 64.35 66.04
  C 64.83 86.66 83.30 102.36 103.76 99.68
  Q 110.25 98.83 115.33 96.04
  Q 132.95 86.36 134.20 65.66
  C 134.29 64.17 133.97 62.42 133.87 60.88
  C 133.73 58.57 133.01 56.32 132.40 54.09
  Q 132.12 53.09 132.79 53.88
  C 137.81 59.79 144.42 59.40 150.51 55.68
  A 0.61 0.61 0.0 0 0 150.74 54.89
  C 148.67 50.85 144.73 46.63 139.96 46.38
  Q 136.81 46.22 133.34 47.52
  Q 132.26 47.93 133.18 47.23"
/>
<path stroke="#8cc8ff" vector-effect="non-scaling-stroke" d="
  M 53.01 123.99
  L 52.99 110.31
  Q 52.99 109.75 52.44 109.86
  L 48.17 110.75
  Q 47.01 111.00 48.06 111.55
  Q 48.56 111.82 49.12 111.82
  A 1.29 1.29 0.0 0 1 50.40 113.08
  Q 50.61 121.37 50.44 128.97
  Q 50.38 131.41 47.99 131.34
  Q 47.87 131.34 47.82 131.45
  L 47.60 131.85
  Q 47.45 132.13 47.77 132.16
  Q 51.31 132.46 55.46 132.12
  Q 56.32 132.05 55.56 131.64
  Q 54.77 131.23 53.92 130.97
  Q 53.38 130.80 53.24 130.25
  Q 52.73 128.26 53.16 126.17
  A 0.70 0.70 0.0 0 1 54.38 125.87
  L 58.12 130.36
  A 0.44 0.44 0.0 0 1 57.86 131.08
  Q 57.27 131.19 56.95 131.61
  Q 56.47 132.25 57.27 132.25
  L 63.50 132.25
  Q 63.85 132.25 63.94 131.91
  Q 63.99 131.72 63.89 131.53
  Q 63.74 131.26 63.44 131.18
  Q 63.01 131.06 62.58 130.98
  A 1.66 1.64 -15.5 0 1 61.63 130.45
  L 56.07 124.15
  Q 55.71 123.75 56.11 123.39
  Q 58.25 121.45 60.23 119.71
  C 60.92 119.11 61.69 119.02 62.52 118.75
  Q 62.68 118.70 62.73 118.55
  Q 62.78 118.40 62.65 118.23
  Q 62.48 118.01 62.21 118.01
  L 56.01 118.05
  Q 55.84 118.05 55.84 118.22
  L 55.84 118.56
  Q 55.84 118.76 56.04 118.81
  L 57.34 119.09
  Q 58.28 119.30 57.60 119.99
  L 53.48 124.18
  A 0.27 0.27 0.0 0 1 53.01 123.99"
/>
<path stroke="#8cc8ff" vector-effect="non-scaling-stroke" d="
  M 187.02 118.79
  L 186.99 110.30
  A 0.47 0.47 0.0 0 0 186.44 109.85
  Q 184.54 110.21 182.81 110.65
  Q 180.58 111.20 182.83 111.66
  Q 183.66 111.84 183.94 112.51
  Q 184.25 113.26 184.25 114.09
  Q 184.24 123.09 184.26 131.66
  Q 184.26 132.67 185.00 131.98
  Q 185.47 131.53 185.77 130.98
  Q 186.10 130.37 186.64 130.81
  C 194.14 136.95 202.30 125.94 196.14 119.83
  Q 192.09 115.81 187.66 119.11
  Q 187.03 119.58 187.02 118.79"
/>
<path stroke="#8cc8ff" vector-effect="non-scaling-stroke" d="
  M 94.51 112.14
  A 1.65 1.65 0.0 0 0 92.86 110.49
  A 1.65 1.65 0.0 0 0 91.21 112.14
  A 1.65 1.65 0.0 0 0 92.86 113.79
  A 1.65 1.65 0.0 0 0 94.51 112.14"
/>
<path stroke="#8cc8ff" vector-effect="non-scaling-stroke" d="
  M 122.01 112.13
  A 1.64 1.64 0.0 0 0 120.37 110.49
  A 1.64 1.64 0.0 0 0 118.73 112.13
  A 1.64 1.64 0.0 0 0 120.37 113.77
  A 1.64 1.64 0.0 0 0 122.01 112.13"
/>
<path stroke="#8cc8ff" vector-effect="non-scaling-stroke" d="
  M 14.64 112.65
  Q 20.64 111.55 21.32 116.07
  Q 21.42 116.74 22.08 116.56
  Q 22.58 116.43 22.49 115.90
  Q 22.16 113.98 22.28 112.09
  Q 22.32 111.50 21.73 111.50
  L 2.25 111.50
  Q 1.75 111.50 1.75 112.00
  L 1.75 116.27
  Q 1.75 116.58 2.07 116.58
  L 2.49 116.58
  Q 2.65 116.58 2.66 116.42
  C 2.89 112.34 6.59 112.09 9.78 112.67
  Q 10.50 112.80 10.50 113.54
  Q 10.50 120.68 10.49 128.16
  Q 10.49 131.05 7.54 131.19
  A 0.39 0.39 0.0 0 0 7.19 131.44
  L 7.05 131.82
  Q 6.88 132.25 7.35 132.25
  L 16.93 132.25
  Q 18.04 132.25 17.13 131.61
  Q 16.33 131.05 15.29 130.94
  A 1.73 1.72 3.2 0 1 13.75 129.23
  L 13.75 113.72
  Q 13.75 112.82 14.64 112.65"
/>
<path stroke="#8cc8ff" vector-effect="non-scaling-stroke" d="
  M 69.80 116.17
  Q 69.39 114.80 70.26 115.95
  L 81.95 131.35
  Q 84.46 134.66 84.48 130.51
  Q 84.53 122.37 84.51 114.74
  Q 84.51 112.21 87.21 112.46
  Q 87.37 112.48 87.45 112.35
  L 87.62 112.06
  Q 87.94 111.53 87.31 111.52
  L 80.46 111.50
  A 0.27 0.27 0.0 0 0 80.18 111.79
  L 80.20 112.19
  Q 80.22 112.50 80.53 112.47
  C 81.73 112.38 82.80 113.20 82.78 114.46
  Q 82.67 120.56 82.82 126.16
  Q 82.85 127.38 82.12 126.40
  L 71.23 111.89
  A 0.97 0.96 71.9 0 0 70.45 111.49
  L 65.79 111.50
  Q 65.56 111.50 65.47 111.71
  L 65.33 112.04
  Q 65.17 112.43 65.59 112.43
  C 66.92 112.44 68.20 113.07 68.18 114.55
  Q 68.07 121.72 68.29 128.95
  C 68.33 130.45 67.06 131.21 65.65 131.25
  Q 65.37 131.26 65.31 131.54
  L 65.24 131.90
  Q 65.18 132.20 65.49 132.21
  Q 69.05 132.31 71.94 132.18
  Q 73.46 132.11 72.10 131.43
  Q 71.29 131.02 70.51 130.63
  Q 69.98 130.37 69.97 129.79
  Q 69.78 123.18 69.90 116.96
  Q 69.91 116.57 69.80 116.17"
/>
<path stroke="#8cc8ff" vector-effect="non-scaling-stroke" d="
  M 156.74 121.01
  L 146.94 121.01
  Q 146.23 121.01 146.22 120.30
  Q 146.18 117.20 146.32 114.35
  Q 146.42 112.39 148.46 112.60
  A 0.37 0.36 11.6 0 0 148.85 112.35
  L 148.95 112.05
  A 0.44 0.43 -81.1 0 0 148.54 111.48
  L 141.02 111.51
  Q 140.75 111.51 140.77 111.78
  L 140.78 112.09
  A 0.39 0.39 0.0 0 0 141.18 112.46
  Q 143.35 112.41 143.41 114.57
  Q 143.60 121.39 143.44 128.75
  Q 143.39 131.18 140.93 131.26
  A 0.38 0.38 0.0 0 0 140.56 131.61
  L 140.54 132.00
  Q 140.52 132.24 140.76 132.24
  L 148.93 132.25
  Q 149.90 132.25 149.18 131.60
  Q 148.61 131.08 147.82 131.00
  Q 146.26 130.83 146.25 129.25
  L 146.25 123.25
  Q 146.25 122.25 147.25 122.25
  L 156.57 122.25
  Q 157.28 122.25 157.27 122.96
  Q 157.23 125.74 157.26 128.85
  C 157.27 130.42 156.12 131.23 154.64 131.28
  Q 154.26 131.29 154.25 131.67
  L 154.25 131.97
  A 0.27 0.27 0.0 0 0 154.51 132.25
  L 162.43 132.25
  Q 162.90 132.26 162.90 131.79
  L 162.91 131.47
  Q 162.91 131.23 162.67 131.22
  Q 160.00 131.08 159.99 128.46
  Q 159.96 120.73 160.06 114.27
  A 1.82 1.80 3.5 0 1 162.07 112.51
  Q 162.58 112.56 162.83 112.13
  A 0.41 0.41 0.0 0 0 162.47 111.51
  L 154.60 111.51
  Q 154.45 111.51 154.44 111.67
  L 154.44 111.94
  Q 154.44 112.37 154.87 112.40
  Q 157.35 112.54 157.24 115.04
  C 157.16 116.83 157.26 118.69 157.28 120.46
  A 0.54 0.54 0.0 0 1 156.74 121.01"
/>
<path stroke="#8cc8ff" vector-effect="non-scaling-stroke" d="
  M 29.82 130.35
  Q 30.55 133.52 34.12 132.03
  Q 34.83 131.73 34.91 131.06
  Q 34.97 130.54 34.45 130.64
  Q 34.26 130.68 34.09 130.80
  A 1.09 1.08 70.5 0 1 32.39 129.98
  Q 32.10 126.31 32.29 122.45
  C 32.54 117.51 28.83 117.50 25.20 117.81
  Q 23.48 117.96 22.46 119.15
  Q 21.89 119.82 22.02 120.69
  Q 22.11 121.30 22.62 121.63
  A 1.02 1.02 0.0 0 0 23.91 121.49
  Q 24.72 120.67 25.02 119.57
  A 1.06 1.06 0.0 0 1 25.79 118.81
  C 28.59 118.12 29.85 120.12 29.50 122.60
  A 0.95 0.95 0.0 0 1 28.90 123.35
  Q 26.01 124.46 23.28 126.06
  C 20.50 127.68 20.54 131.75 23.94 132.36
  Q 27.15 132.92 29.21 130.22
  Q 29.65 129.63 29.82 130.35"
/>
<path stroke="#8cc8ff" vector-effect="non-scaling-stroke" d="
  M 38.62 131.62
  C 41.16 133.13 45.38 132.72 46.02 129.22
  C 46.65 125.76 42.42 123.82 40.05 122.30
  A 1.94 1.93 45.3 0 1 40.06 119.03
  C 42.04 117.80 43.33 119.98 44.17 121.42
  Q 44.82 122.53 44.94 121.25
  Q 45.07 119.99 44.99 118.56
  Q 44.94 117.77 44.25 118.13
  Q 44.14 118.19 44.03 118.21
  Q 43.51 118.30 43.04 118.11
  C 39.96 116.84 36.77 118.39 36.99 122.03
  C 37.16 124.88 40.81 126.23 42.82 127.78
  Q 44.69 129.22 43.00 130.74
  C 41.07 132.46 38.71 130.65 37.87 128.67
  Q 36.76 126.02 36.73 128.89
  Q 36.72 130.27 36.75 131.66
  Q 36.77 132.51 37.51 132.10
  Q 37.65 132.02 37.72 131.88
  Q 38.04 131.28 38.62 131.62"
/>
<path stroke="#8cc8ff" vector-effect="non-scaling-stroke" d="
  M 90.62 131.00
  L 89.57 131.24
  Q 89.32 131.30 89.14 131.49
  Q 88.92 131.73 89.08 131.96
  Q 89.28 132.25 89.64 132.25
  L 96.51 132.25
  Q 96.66 132.25 96.76 132.13
  Q 96.95 131.92 96.74 131.57
  A 0.46 0.45 76.1 0 0 96.40 131.36
  Q 94.36 131.18 94.32 129.11
  Q 94.20 123.41 94.26 118.38
  Q 94.27 117.67 93.57 117.80
  L 89.50 118.54
  Q 88.98 118.64 89.05 119.16
  L 89.09 119.47
  A 0.23 0.23 0.0 0 0 89.31 119.68
  L 90.63 119.76
  Q 91.27 119.79 91.37 120.42
  Q 92.10 125.30 91.49 130.05
  Q 91.39 130.83 90.62 131.00"
/>
<path stroke="#8cc8ff" vector-effect="non-scaling-stroke" d="
  M 102.78 119.24
  L 102.74 118.23
  Q 102.72 117.63 102.13 117.75
  Q 100.20 118.15 98.51 118.66
  Q 98.29 118.73 98.18 118.95
  Q 98.11 119.10 98.33 119.28
  Q 98.55 119.46 98.83 119.44
  Q 99.32 119.41 99.75 119.65
  Q 100.30 119.96 100.38 120.60
  Q 101.00 125.65 100.49 130.05
  Q 100.42 130.66 99.95 130.97
  Q 99.33 131.39 98.56 131.34
  Q 98.35 131.32 98.29 131.52
  L 98.18 131.89
  Q 98.07 132.23 98.43 132.23
  Q 101.99 132.29 105.32 132.20
  Q 105.42 132.20 105.50 132.14
  Q 105.64 132.06 105.65 131.89
  A 0.47 0.46 -83.7 0 0 105.27 131.41
  Q 104.46 131.28 103.73 130.85
  Q 103.25 130.56 103.24 129.99
  Q 103.23 126.47 103.27 123.33
  Q 103.32 120.21 106.67 119.16
  Q 107.21 118.99 107.78 119.11
  Q 110.50 119.67 110.50 122.45
  L 110.50 130.03
  Q 110.50 130.68 109.93 131.00
  Q 109.26 131.37 108.44 131.40
  Q 108.30 131.41 108.26 131.54
  L 108.16 131.91
  Q 108.07 132.24 108.41 132.24
  L 114.74 132.25
  Q 116.29 132.26 114.94 131.51
  Q 114.40 131.21 113.87 130.95
  Q 113.37 130.71 113.35 130.16
  L 113.02 120.54
  Q 113.00 119.92 112.59 119.47
  C 110.33 116.99 106.29 117.06 103.74 119.62
  Q 102.82 120.53 102.78 119.24"
/>
<path stroke="#8cc8ff" vector-effect="non-scaling-stroke" d="
  M 118.99 120.81
  Q 119.06 129.02 118.96 135.90
  Q 118.93 137.49 117.41 138.09
  A 1.57 1.57 0.0 0 1 115.50 137.46
  L 114.59 135.99
  A 1.12 1.10 -20.4 0 0 113.45 135.48
  Q 111.75 135.78 112.57 137.68
  A 1.89 1.84 88.5 0 0 113.58 138.66
  C 119.14 140.82 121.87 136.96 121.80 132.00
  Q 121.68 124.50 121.78 118.39
  Q 121.79 117.60 121.01 117.75
  L 116.75 118.62
  Q 115.76 118.82 116.63 119.34
  Q 117.42 119.82 118.27 119.96
  Q 118.98 120.08 118.99 120.81"
/>
<path stroke="#8cc8ff" vector-effect="non-scaling-stroke" d="
  M 133.84 130.19
  C 134.30 133.04 137.25 132.97 139.00 131.49
  Q 139.14 131.38 139.16 131.22
  Q 139.22 130.60 138.62 130.73
  L 138.05 130.85
  A 1.37 1.37 0.0 0 1 136.39 129.60
  Q 136.13 125.26 136.28 121.27
  C 136.43 117.18 131.61 117.56 129.03 117.83
  Q 127.15 118.03 126.20 119.64
  Q 125.67 120.53 126.39 121.28
  Q 126.75 121.67 127.27 121.78
  A 0.98 0.98 0.0 0 0 128.37 121.24
  L 129.16 119.55
  Q 129.40 119.02 129.98 118.87
  Q 133.36 118.01 133.75 121.95
  Q 133.86 123.06 132.82 123.48
  C 130.39 124.47 126.76 125.60 125.72 128.08
  Q 124.64 130.66 126.97 131.90
  Q 130.49 133.75 133.31 130.06
  Q 133.73 129.52 133.84 130.19"
/>
<path stroke="#8cc8ff" vector-effect="non-scaling-stroke" d="
  M 176.42 129.76
  L 176.77 131.99
  Q 176.87 132.62 177.50 132.55
  L 181.01 132.18
  Q 181.59 132.11 181.25 131.64
  Q 181.05 131.36 180.71 131.30
  Q 180.07 131.19 179.47 130.97
  A 0.73 0.71 -80.3 0 1 179.00 130.29
  L 179.00 118.52
  A 0.54 0.53 89.0 0 0 178.45 117.98
  Q 176.51 118.02 174.52 118.00
  Q 174.26 118.00 174.13 118.22
  Q 174.05 118.36 174.14 118.54
  Q 174.25 118.79 174.52 118.83
  Q 175.34 118.96 175.82 119.51
  Q 176.15 119.90 176.18 120.41
  Q 176.45 124.89 176.20 126.25
  C 175.78 128.52 174.05 131.44 171.30 130.69
  C 169.26 130.13 169.19 127.29 169.22 125.59
  Q 169.27 121.98 169.26 118.52
  Q 169.26 117.99 168.74 117.99
  Q 166.79 118.00 164.54 118.02
  Q 164.31 118.03 164.27 118.25
  Q 164.18 118.77 164.71 118.83
  Q 165.61 118.92 166.18 119.61
  A 1.44 1.43 25.9 0 1 166.51 120.55
  Q 166.43 124.53 166.58 128.38
  C 166.63 129.89 167.25 131.34 168.73 131.94
  Q 173.18 133.75 176.00 129.67
  Q 176.33 129.19 176.42 129.76"
/>
<path stroke="#8cc8ff" vector-effect="non-scaling-stroke" d="
  M 124.9988 64.1546
  A 12.39 12.39 0.0 0 0 112.5872 51.7862
  L 85.2873 51.8338
  A 12.39 12.39 0.0 0 0 72.9189 64.2454
  L 72.9212 65.5254
  A 12.39 12.39 0.0 0 0 85.3328 77.8938
  L 112.6327 77.8462
  A 12.39 12.39 0.0 0 0 125.0011 65.4346
  L 124.9988 64.1546"
/>
<path stroke="#8cc8ff" vector-effect="non-scaling-stroke" d="
  M 119.9494 63.7433
  A 7.75 7.75 0.0 0 0 112.1859 56.0068
  L 85.6259 56.0532
  A 7.75 7.75 0.0 0 0 77.8895 63.8167
  L 77.8906 64.4767
  A 7.75 7.75 0.0 0 0 85.6541 72.2132
  L 112.2141 72.1668
  A 7.75 7.75 0.0 0 0 119.9505 64.4033
  L 119.9494 63.7433"
/>
<path stroke="#8cc8ff" vector-effect="non-scaling-stroke" d="
  M 110.4160 60.0757
  A 0.40 0.40 0.0 0 0 109.8698 59.9283
  L 102.3278 64.2652
  A 0.40 0.40 0.0 0 0 102.1805 64.8113
  L 104.3040 68.5043
  A 0.40 0.40 0.0 0 0 104.8502 68.6517
  L 112.3922 64.3148
  A 0.40 0.40 0.0 0 0 112.5395 63.7687
  L 110.4160 60.0757"
/>
<path stroke="#8cc8ff" vector-effect="non-scaling-stroke" d="
  M 95.5873 64.8427
  A 0.43 0.43 0.0 0 0 95.4299 64.2553
  L 87.9301 59.9253
  A 0.43 0.43 0.0 0 0 87.3427 60.0827
  L 85.2327 63.7373
  A 0.43 0.43 0.0 0 0 85.3901 64.3247
  L 92.8899 68.6547
  A 0.43 0.43 0.0 0 0 93.4773 68.4973
  L 95.5873 64.8427"
/>
<path stroke="#8cc8ff" vector-effect="non-scaling-stroke" d="
  M 191.0388 131.3792
  A 6.29 4.22 89.1 0 0 195.1595 125.0237
  A 6.29 4.22 89.1 0 0 190.8412 118.8008
  A 6.29 4.22 89.1 0 0 186.7205 125.1563
  A 6.29 4.22 89.1 0 0 191.0388 131.3792"
/>
<path stroke="#8cc8ff" vector-effect="non-scaling-stroke" d="
  M 28.45 124.68
  Q 26.11 125.29 24.44 127.59
  Q 23.26 129.21 24.86 130.42
  Q 25.75 131.09 27.28 130.35
  Q 28.79 129.62 29.28 128.01
  Q 29.74 126.52 29.44 124.69
  Q 29.35 124.08 28.82 124.39
  Q 28.60 124.51 28.45 124.68"
/>
<path stroke="#8cc8ff" vector-effect="non-scaling-stroke" d="
  M 133.10 124.39
  C 131.29 125.21 129.12 126.10 128.27 128.04
  A 1.96 1.96 0.0 0 0 130.06 130.78
  C 133.11 130.80 133.94 127.22 133.73 124.76
  Q 133.67 124.14 133.10 124.39"
/>
</g>
<path fill="#ffffff" d="
  M 0.00 0.00
  L 200.00 0.00
  L 200.00 200.00
  L 0.00 200.00
  L 0.00 0.00
  Z
  M 133.18 47.23
  C 140.07 41.98 139.95 36.15 136.08 28.62
  Q 135.81 28.08 135.28 28.36
  C 129.68 31.30 125.42 36.35 127.10 43.11
  Q 127.41 44.34 126.60 43.36
  Q 116.90 31.65 102.31 30.33
  C 81.47 28.45 63.86 45.05 64.35 66.04
  C 64.83 86.66 83.30 102.36 103.76 99.68
  Q 110.25 98.83 115.33 96.04
  Q 132.95 86.36 134.20 65.66
  C 134.29 64.17 133.97 62.42 133.87 60.88
  C 133.73 58.57 133.01 56.32 132.40 54.09
  Q 132.12 53.09 132.79 53.88
  C 137.81 59.79 144.42 59.40 150.51 55.68
  A 0.61 0.61 0.0 0 0 150.74 54.89
  C 148.67 50.85 144.73 46.63 139.96 46.38
  Q 136.81 46.22 133.34 47.52
  Q 132.26 47.93 133.18 47.23
  Z
  M 53.01 123.99
  L 52.99 110.31
  Q 52.99 109.75 52.44 109.86
  L 48.17 110.75
  Q 47.01 111.00 48.06 111.55
  Q 48.56 111.82 49.12 111.82
  A 1.29 1.29 0.0 0 1 50.40 113.08
  Q 50.61 121.37 50.44 128.97
  Q 50.38 131.41 47.99 131.34
  Q 47.87 131.34 47.82 131.45
  L 47.60 131.85
  Q 47.45 132.13 47.77 132.16
  Q 51.31 132.46 55.46 132.12
  Q 56.32 132.05 55.56 131.64
  Q 54.77 131.23 53.92 130.97
  Q 53.38 130.80 53.24 130.25
  Q 52.73 128.26 53.16 126.17
  A 0.70 0.70 0.0 0 1 54.38 125.87
  L 58.12 130.36
  A 0.44 0.44 0.0 0 1 57.86 131.08
  Q 57.27 131.19 56.95 131.61
  Q 56.47 132.25 57.27 132.25
  L 63.50 132.25
  Q 63.85 132.25 63.94 131.91
  Q 63.99 131.72 63.89 131.53
  Q 63.74 131.26 63.44 131.18
  Q 63.01 131.06 62.58 130.98
  A 1.66 1.64 -15.5 0 1 61.63 130.45
  L 56.07 124.15
  Q 55.71 123.75 56.11 123.39
  Q 58.25 121.45 60.23 119.71
  C 60.92 119.11 61.69 119.02 62.52 118.75
  Q 62.68 118.70 62.73 118.55
  Q 62.78 118.40 62.65 118.23
  Q 62.48 118.01 62.21 118.01
  L 56.01 118.05
  Q 55.84 118.05 55.84 118.22
  L 55.84 118.56
  Q 55.84 118.76 56.04 118.81
  L 57.34 119.09
  Q 58.28 119.30 57.60 119.99
  L 53.48 124.18
  A 0.27 0.27 0.0 0 1 53.01 123.99
  Z
  M 187.02 118.79
  L 186.99 110.30
  A 0.47 0.47 0.0 0 0 186.44 109.85
  Q 184.54 110.21 182.81 110.65
  Q 180.58 111.20 182.83 111.66
  Q 183.66 111.84 183.94 112.51
  Q 184.25 113.26 184.25 114.09
  Q 184.24 123.09 184.26 131.66
  Q 184.26 132.67 185.00 131.98
  Q 185.47 131.53 185.77 130.98
  Q 186.10 130.37 186.64 130.81
  C 194.14 136.95 202.30 125.94 196.14 119.83
  Q 192.09 115.81 187.66 119.11
  Q 187.03 119.58 187.02 118.79
  Z
  M 94.51 112.14
  A 1.65 1.65 0.0 0 0 92.86 110.49
  A 1.65 1.65 0.0 0 0 91.21 112.14
  A 1.65 1.65 0.0 0 0 92.86 113.79
  A 1.65 1.65 0.0 0 0 94.51 112.14
  Z
  M 122.01 112.13
  A 1.64 1.64 0.0 0 0 120.37 110.49
  A 1.64 1.64 0.0 0 0 118.73 112.13
  A 1.64 1.64 0.0 0 0 120.37 113.77
  A 1.64 1.64 0.0 0 0 122.01 112.13
  Z
  M 14.64 112.65
  Q 20.64 111.55 21.32 116.07
  Q 21.42 116.74 22.08 116.56
  Q 22.58 116.43 22.49 115.90
  Q 22.16 113.98 22.28 112.09
  Q 22.32 111.50 21.73 111.50
  L 2.25 111.50
  Q 1.75 111.50 1.75 112.00
  L 1.75 116.27
  Q 1.75 116.58 2.07 116.58
  L 2.49 116.58
  Q 2.65 116.58 2.66 116.42
  C 2.89 112.34 6.59 112.09 9.78 112.67
  Q 10.50 112.80 10.50 113.54
  Q 10.50 120.68 10.49 128.16
  Q 10.49 131.05 7.54 131.19
  A 0.39 0.39 0.0 0 0 7.19 131.44
  L 7.05 131.82
  Q 6.88 132.25 7.35 132.25
  L 16.93 132.25
  Q 18.04 132.25 17.13 131.61
  Q 16.33 131.05 15.29 130.94
  A 1.73 1.72 3.2 0 1 13.75 129.23
  L 13.75 113.72
  Q 13.75 112.82 14.64 112.65
  Z
  M 69.80 116.17
  Q 69.39 114.80 70.26 115.95
  L 81.95 131.35
  Q 84.46 134.66 84.48 130.51
  Q 84.53 122.37 84.51 114.74
  Q 84.51 112.21 87.21 112.46
  Q 87.37 112.48 87.45 112.35
  L 87.62 112.06
  Q 87.94 111.53 87.31 111.52
  L 80.46 111.50
  A 0.27 0.27 0.0 0 0 80.18 111.79
  L 80.20 112.19
  Q 80.22 112.50 80.53 112.47
  C 81.73 112.38 82.80 113.20 82.78 114.46
  Q 82.67 120.56 82.82 126.16
  Q 82.85 127.38 82.12 126.40
  L 71.23 111.89
  A 0.97 0.96 71.9 0 0 70.45 111.49
  L 65.79 111.50
  Q 65.56 111.50 65.47 111.71
  L 65.33 112.04
  Q 65.17 112.43 65.59 112.43
  C 66.92 112.44 68.20 113.07 68.18 114.55
  Q 68.07 121.72 68.29 128.95
  C 68.33 130.45 67.06 131.21 65.65 131.25
  Q 65.37 131.26 65.31 131.54
  L 65.24 131.90
  Q 65.18 132.20 65.49 132.21
  Q 69.05 132.31 71.94 132.18
  Q 73.46 132.11 72.10 131.43
  Q 71.29 131.02 70.51 130.63
  Q 69.98 130.37 69.97 129.79
  Q 69.78 123.18 69.90 116.96
  Q 69.91 116.57 69.80 116.17
  Z
  M 156.74 121.01
  L 146.94 121.01
  Q 146.23 121.01 146.22 120.30
  Q 146.18 117.20 146.32 114.35
  Q 146.42 112.39 148.46 112.60
  A 0.37 0.36 11.6 0 0 148.85 112.35
  L 148.95 112.05
  A 0.44 0.43 -81.1 0 0 148.54 111.48
  L 141.02 111.51
  Q 140.75 111.51 140.77 111.78
  L 140.78 112.09
  A 0.39 0.39 0.0 0 0 141.18 112.46
  Q 143.35 112.41 143.41 114.57
  Q 143.60 121.39 143.44 128.75
  Q 143.39 131.18 140.93 131.26
  A 0.38 0.38 0.0 0 0 140.56 131.61
  L 140.54 132.00
  Q 140.52 132.24 140.76 132.24
  L 148.93 132.25
  Q 149.90 132.25 149.18 131.60
  Q 148.61 131.08 147.82 131.00
  Q 146.26 130.83 146.25 129.25
  L 146.25 123.25
  Q 146.25 122.25 147.25 122.25
  L 156.57 122.25
  Q 157.28 122.25 157.27 122.96
  Q 157.23 125.74 157.26 128.85
  C 157.27 130.42 156.12 131.23 154.64 131.28
  Q 154.26 131.29 154.25 131.67
  L 154.25 131.97
  A 0.27 0.27 0.0 0 0 154.51 132.25
  L 162.43 132.25
  Q 162.90 132.26 162.90 131.79
  L 162.91 131.47
  Q 162.91 131.23 162.67 131.22
  Q 160.00 131.08 159.99 128.46
  Q 159.96 120.73 160.06 114.27
  A 1.82 1.80 3.5 0 1 162.07 112.51
  Q 162.58 112.56 162.83 112.13
  A 0.41 0.41 0.0 0 0 162.47 111.51
  L 154.60 111.51
  Q 154.45 111.51 154.44 111.67
  L 154.44 111.94
  Q 154.44 112.37 154.87 112.40
  Q 157.35 112.54 157.24 115.04
  C 157.16 116.83 157.26 118.69 157.28 120.46
  A 0.54 0.54 0.0 0 1 156.74 121.01
  Z
  M 29.82 130.35
  Q 30.55 133.52 34.12 132.03
  Q 34.83 131.73 34.91 131.06
  Q 34.97 130.54 34.45 130.64
  Q 34.26 130.68 34.09 130.80
  A 1.09 1.08 70.5 0 1 32.39 129.98
  Q 32.10 126.31 32.29 122.45
  C 32.54 117.51 28.83 117.50 25.20 117.81
  Q 23.48 117.96 22.46 119.15
  Q 21.89 119.82 22.02 120.69
  Q 22.11 121.30 22.62 121.63
  A 1.02 1.02 0.0 0 0 23.91 121.49
  Q 24.72 120.67 25.02 119.57
  A 1.06 1.06 0.0 0 1 25.79 118.81
  C 28.59 118.12 29.85 120.12 29.50 122.60
  A 0.95 0.95 0.0 0 1 28.90 123.35
  Q 26.01 124.46 23.28 126.06
  C 20.50 127.68 20.54 131.75 23.94 132.36
  Q 27.15 132.92 29.21 130.22
  Q 29.65 129.63 29.82 130.35
  Z
  M 38.62 131.62
  C 41.16 133.13 45.38 132.72 46.02 129.22
  C 46.65 125.76 42.42 123.82 40.05 122.30
  A 1.94 1.93 45.3 0 1 40.06 119.03
  C 42.04 117.80 43.33 119.98 44.17 121.42
  Q 44.82 122.53 44.94 121.25
  Q 45.07 119.99 44.99 118.56
  Q 44.94 117.77 44.25 118.13
  Q 44.14 118.19 44.03 118.21
  Q 43.51 118.30 43.04 118.11
  C 39.96 116.84 36.77 118.39 36.99 122.03
  C 37.16 124.88 40.81 126.23 42.82 127.78
  Q 44.69 129.22 43.00 130.74
  C 41.07 132.46 38.71 130.65 37.87 128.67
  Q 36.76 126.02 36.73 128.89
  Q 36.72 130.27 36.75 131.66
  Q 36.77 132.51 37.51 132.10
  Q 37.65 132.02 37.72 131.88
  Q 38.04 131.28 38.62 131.62
  Z
  M 90.62 131.00
  L 89.57 131.24
  Q 89.32 131.30 89.14 131.49
  Q 88.92 131.73 89.08 131.96
  Q 89.28 132.25 89.64 132.25
  L 96.51 132.25
  Q 96.66 132.25 96.76 132.13
  Q 96.95 131.92 96.74 131.57
  A 0.46 0.45 76.1 0 0 96.40 131.36
  Q 94.36 131.18 94.32 129.11
  Q 94.20 123.41 94.26 118.38
  Q 94.27 117.67 93.57 117.80
  L 89.50 118.54
  Q 88.98 118.64 89.05 119.16
  L 89.09 119.47
  A 0.23 0.23 0.0 0 0 89.31 119.68
  L 90.63 119.76
  Q 91.27 119.79 91.37 120.42
  Q 92.10 125.30 91.49 130.05
  Q 91.39 130.83 90.62 131.00
  Z
  M 102.78 119.24
  L 102.74 118.23
  Q 102.72 117.63 102.13 117.75
  Q 100.20 118.15 98.51 118.66
  Q 98.29 118.73 98.18 118.95
  Q 98.11 119.10 98.33 119.28
  Q 98.55 119.46 98.83 119.44
  Q 99.32 119.41 99.75 119.65
  Q 100.30 119.96 100.38 120.60
  Q 101.00 125.65 100.49 130.05
  Q 100.42 130.66 99.95 130.97
  Q 99.33 131.39 98.56 131.34
  Q 98.35 131.32 98.29 131.52
  L 98.18 131.89
  Q 98.07 132.23 98.43 132.23
  Q 101.99 132.29 105.32 132.20
  Q 105.42 132.20 105.50 132.14
  Q 105.64 132.06 105.65 131.89
  A 0.47 0.46 -83.7 0 0 105.27 131.41
  Q 104.46 131.28 103.73 130.85
  Q 103.25 130.56 103.24 129.99
  Q 103.23 126.47 103.27 123.33
  Q 103.32 120.21 106.67 119.16
  Q 107.21 118.99 107.78 119.11
  Q 110.50 119.67 110.50 122.45
  L 110.50 130.03
  Q 110.50 130.68 109.93 131.00
  Q 109.26 131.37 108.44 131.40
  Q 108.30 131.41 108.26 131.54
  L 108.16 131.91
  Q 108.07 132.24 108.41 132.24
  L 114.74 132.25
  Q 116.29 132.26 114.94 131.51
  Q 114.40 131.21 113.87 130.95
  Q 113.37 130.71 113.35 130.16
  L 113.02 120.54
  Q 113.00 119.92 112.59 119.47
  C 110.33 116.99 106.29 117.06 103.74 119.62
  Q 102.82 120.53 102.78 119.24
  Z
  M 118.99 120.81
  Q 119.06 129.02 118.96 135.90
  Q 118.93 137.49 117.41 138.09
  A 1.57 1.57 0.0 0 1 115.50 137.46
  L 114.59 135.99
  A 1.12 1.10 -20.4 0 0 113.45 135.48
  Q 111.75 135.78 112.57 137.68
  A 1.89 1.84 88.5 0 0 113.58 138.66
  C 119.14 140.82 121.87 136.96 121.80 132.00
  Q 121.68 124.50 121.78 118.39
  Q 121.79 117.60 121.01 117.75
  L 116.75 118.62
  Q 115.76 118.82 116.63 119.34
  Q 117.42 119.82 118.27 119.96
  Q 118.98 120.08 118.99 120.81
  Z
  M 133.84 130.19
  C 134.30 133.04 137.25 132.97 139.00 131.49
  Q 139.14 131.38 139.16 131.22
  Q 139.22 130.60 138.62 130.73
  L 138.05 130.85
  A 1.37 1.37 0.0 0 1 136.39 129.60
  Q 136.13 125.26 136.28 121.27
  C 136.43 117.18 131.61 117.56 129.03 117.83
  Q 127.15 118.03 126.20 119.64
  Q 125.67 120.53 126.39 121.28
  Q 126.75 121.67 127.27 121.78
  A 0.98 0.98 0.0 0 0 128.37 121.24
  L 129.16 119.55
  Q 129.40 119.02 129.98 118.87
  Q 133.36 118.01 133.75 121.95
  Q 133.86 123.06 132.82 123.48
  C 130.39 124.47 126.76 125.60 125.72 128.08
  Q 124.64 130.66 126.97 131.90
  Q 130.49 133.75 133.31 130.06
  Q 133.73 129.52 133.84 130.19
  Z
  M 176.42 129.76
  L 176.77 131.99
  Q 176.87 132.62 177.50 132.55
  L 181.01 132.18
  Q 181.59 132.11 181.25 131.64
  Q 181.05 131.36 180.71 131.30
  Q 180.07 131.19 179.47 130.97
  A 0.73 0.71 -80.3 0 1 179.00 130.29
  L 179.00 118.52
  A 0.54 0.53 89.0 0 0 178.45 117.98
  Q 176.51 118.02 174.52 118.00
  Q 174.26 118.00 174.13 118.22
  Q 174.05 118.36 174.14 118.54
  Q 174.25 118.79 174.52 118.83
  Q 175.34 118.96 175.82 119.51
  Q 176.15 119.90 176.18 120.41
  Q 176.45 124.89 176.20 126.25
  C 175.78 128.52 174.05 131.44 171.30 130.69
  C 169.26 130.13 169.19 127.29 169.22 125.59
  Q 169.27 121.98 169.26 118.52
  Q 169.26 117.99 168.74 117.99
  Q 166.79 118.00 164.54 118.02
  Q 164.31 118.03 164.27 118.25
  Q 164.18 118.77 164.71 118.83
  Q 165.61 118.92 166.18 119.61
  A 1.44 1.43 25.9 0 1 166.51 120.55
  Q 166.43 124.53 166.58 128.38
  C 166.63 129.89 167.25 131.34 168.73 131.94
  Q 173.18 133.75 176.00 129.67
  Q 176.33 129.19 176.42 129.76
  Z"
/>
<path fill="#1890ff" d="
  M 133.34 47.52
  Q 136.81 46.22 139.96 46.38
  C 144.73 46.63 148.67 50.85 150.74 54.89
  A 0.61 0.61 0.0 0 1 150.51 55.68
  C 144.42 59.40 137.81 59.79 132.79 53.88
  Q 132.12 53.09 132.40 54.09
  C 133.01 56.32 133.73 58.57 133.87 60.88
  C 133.97 62.42 134.29 64.17 134.20 65.66
  Q 132.95 86.36 115.33 96.04
  Q 110.25 98.83 103.76 99.68
  C 83.30 102.36 64.83 86.66 64.35 66.04
  C 63.86 45.05 81.47 28.45 102.31 30.33
  Q 116.90 31.65 126.60 43.36
  Q 127.41 44.34 127.10 43.11
  C 125.42 36.35 129.68 31.30 135.28 28.36
  Q 135.81 28.08 136.08 28.62
  C 139.95 36.15 140.07 41.98 133.18 47.23
  Q 132.26 47.93 133.34 47.52
  Z
  M 124.9988 64.1546
  A 12.39 12.39 0.0 0 0 112.5872 51.7862
  L 85.2873 51.8338
  A 12.39 12.39 0.0 0 0 72.9189 64.2454
  L 72.9212 65.5254
  A 12.39 12.39 0.0 0 0 85.3328 77.8938
  L 112.6327 77.8462
  A 12.39 12.39 0.0 0 0 125.0011 65.4346
  L 124.9988 64.1546
  Z"
/>
<path fill="#ffffff" d="
  M 125.0011 65.4346
  A 12.39 12.39 0.0 0 1 112.6327 77.8462
  L 85.3328 77.8938
  A 12.39 12.39 0.0 0 1 72.9212 65.5254
  L 72.9189 64.2454
  A 12.39 12.39 0.0 0 1 85.2873 51.8338
  L 112.5872 51.7862
  A 12.39 12.39 0.0 0 1 124.9988 64.1546
  L 125.0011 65.4346
  Z
  M 119.9494 63.7433
  A 7.75 7.75 0.0 0 0 112.1859 56.0068
  L 85.6259 56.0532
  A 7.75 7.75 0.0 0 0 77.8895 63.8167
  L 77.8906 64.4767
  A 7.75 7.75 0.0 0 0 85.6541 72.2132
  L 112.2141 72.1668
  A 7.75 7.75 0.0 0 0 119.9505 64.4033
  L 119.9494 63.7433
  Z"
/>
<path fill="#1890ff" d="
  M 119.9505 64.4033
  A 7.75 7.75 0.0 0 1 112.2141 72.1668
  L 85.6541 72.2132
  A 7.75 7.75 0.0 0 1 77.8906 64.4767
  L 77.8895 63.8167
  A 7.75 7.75 0.0 0 1 85.6259 56.0532
  L 112.1859 56.0068
  A 7.75 7.75 0.0 0 1 119.9494 63.7433
  L 119.9505 64.4033
  Z
  M 110.4160 60.0757
  A 0.40 0.40 0.0 0 0 109.8698 59.9283
  L 102.3278 64.2652
  A 0.40 0.40 0.0 0 0 102.1805 64.8113
  L 104.3040 68.5043
  A 0.40 0.40 0.0 0 0 104.8502 68.6517
  L 112.3922 64.3148
  A 0.40 0.40 0.0 0 0 112.5395 63.7687
  L 110.4160 60.0757
  Z
  M 95.5873 64.8427
  A 0.43 0.43 0.0 0 0 95.4299 64.2553
  L 87.9301 59.9253
  A 0.43 0.43 0.0 0 0 87.3427 60.0827
  L 85.2327 63.7373
  A 0.43 0.43 0.0 0 0 85.3901 64.3247
  L 92.8899 68.6547
  A 0.43 0.43 0.0 0 0 93.4773 68.4973
  L 95.5873 64.8427
  Z"
/>
<rect fill="#ffffff" x="-4.75" y="-2.53" transform="translate(107.36,64.29) rotate(-29.9)" width="9.50" height="5.06" rx="0.40"/>
<rect fill="#ffffff" x="-4.76" y="-2.54" transform="translate(90.41,64.29) rotate(30.0)" width="9.52" height="5.08" rx="0.43"/>
<path fill="#1890ff" d="
  M 53.01 123.99
  A 0.27 0.27 0.0 0 0 53.48 124.18
  L 57.60 119.99
  Q 58.28 119.30 57.34 119.09
  L 56.04 118.81
  Q 55.84 118.76 55.84 118.56
  L 55.84 118.22
  Q 55.84 118.05 56.01 118.05
  L 62.21 118.01
  Q 62.48 118.01 62.65 118.23
  Q 62.78 118.40 62.73 118.55
  Q 62.68 118.70 62.52 118.75
  C 61.69 119.02 60.92 119.11 60.23 119.71
  Q 58.25 121.45 56.11 123.39
  Q 55.71 123.75 56.07 124.15
  L 61.63 130.45
  A 1.66 1.64 -15.5 0 0 62.58 130.98
  Q 63.01 131.06 63.44 131.18
  Q 63.74 131.26 63.89 131.53
  Q 63.99 131.72 63.94 131.91
  Q 63.85 132.25 63.50 132.25
  L 57.27 132.25
  Q 56.47 132.25 56.95 131.61
  Q 57.27 131.19 57.86 131.08
  A 0.44 0.44 0.0 0 0 58.12 130.36
  L 54.38 125.87
  A 0.70 0.70 0.0 0 0 53.16 126.17
  Q 52.73 128.26 53.24 130.25
  Q 53.38 130.80 53.92 130.97
  Q 54.77 131.23 55.56 131.64
  Q 56.32 132.05 55.46 132.12
  Q 51.31 132.46 47.77 132.16
  Q 47.45 132.13 47.60 131.85
  L 47.82 131.45
  Q 47.87 131.34 47.99 131.34
  Q 50.38 131.41 50.44 128.97
  Q 50.61 121.37 50.40 113.08
  A 1.29 1.29 0.0 0 0 49.12 111.82
  Q 48.56 111.82 48.06 111.55
  Q 47.01 111.00 48.17 110.75
  L 52.44 109.86
  Q 52.99 109.75 52.99 110.31
  L 53.01 123.99
  Z"
/>
<path fill="#1890ff" d="
  M 187.66 119.11
  Q 192.09 115.81 196.14 119.83
  C 202.30 125.94 194.14 136.95 186.64 130.81
  Q 186.10 130.37 185.77 130.98
  Q 185.47 131.53 185.00 131.98
  Q 184.26 132.67 184.26 131.66
  Q 184.24 123.09 184.25 114.09
  Q 184.25 113.26 183.94 112.51
  Q 183.66 111.84 182.83 111.66
  Q 180.58 111.20 182.81 110.65
  Q 184.54 110.21 186.44 109.85
  A 0.47 0.47 0.0 0 1 186.99 110.30
  L 187.02 118.79
  Q 187.03 119.58 187.66 119.11
  Z
  M 191.0388 131.3792
  A 6.29 4.22 89.1 0 0 195.1595 125.0237
  A 6.29 4.22 89.1 0 0 190.8412 118.8008
  A 6.29 4.22 89.1 0 0 186.7205 125.1563
  A 6.29 4.22 89.1 0 0 191.0388 131.3792
  Z"
/>
<circle fill="#1890ff" cx="92.86" cy="112.14" r="1.65"/>
<circle fill="#1890ff" cx="120.37" cy="112.13" r="1.64"/>
<path fill="#1890ff" d="
  M 13.75 113.72
  L 13.75 129.23
  A 1.73 1.72 3.2 0 0 15.29 130.94
  Q 16.33 131.05 17.13 131.61
  Q 18.04 132.25 16.93 132.25
  L 7.35 132.25
  Q 6.88 132.25 7.05 131.82
  L 7.19 131.44
  A 0.39 0.39 0.0 0 1 7.54 131.19
  Q 10.49 131.05 10.49 128.16
  Q 10.50 120.68 10.50 113.54
  Q 10.50 112.80 9.78 112.67
  C 6.59 112.09 2.89 112.34 2.66 116.42
  Q 2.65 116.58 2.49 116.58
  L 2.07 116.58
  Q 1.75 116.58 1.75 116.27
  L 1.75 112.00
  Q 1.75 111.50 2.25 111.50
  L 21.73 111.50
  Q 22.32 111.50 22.28 112.09
  Q 22.16 113.98 22.49 115.90
  Q 22.58 116.43 22.08 116.56
  Q 21.42 116.74 21.32 116.07
  Q 20.64 111.55 14.64 112.65
  Q 13.75 112.82 13.75 113.72
  Z"
/>
<path fill="#1890ff" d="
  M 69.80 116.17
  Q 69.91 116.57 69.90 116.96
  Q 69.78 123.18 69.97 129.79
  Q 69.98 130.37 70.51 130.63
  Q 71.29 131.02 72.10 131.43
  Q 73.46 132.11 71.94 132.18
  Q 69.05 132.31 65.49 132.21
  Q 65.18 132.20 65.24 131.90
  L 65.31 131.54
  Q 65.37 131.26 65.65 131.25
  C 67.06 131.21 68.33 130.45 68.29 128.95
  Q 68.07 121.72 68.18 114.55
  C 68.20 113.07 66.92 112.44 65.59 112.43
  Q 65.17 112.43 65.33 112.04
  L 65.47 111.71
  Q 65.56 111.50 65.79 111.50
  L 70.45 111.49
  A 0.97 0.96 71.9 0 1 71.23 111.89
  L 82.12 126.40
  Q 82.85 127.38 82.82 126.16
  Q 82.67 120.56 82.78 114.46
  C 82.80 113.20 81.73 112.38 80.53 112.47
  Q 80.22 112.50 80.20 112.19
  L 80.18 111.79
  A 0.27 0.27 0.0 0 1 80.46 111.50
  L 87.31 111.52
  Q 87.94 111.53 87.62 112.06
  L 87.45 112.35
  Q 87.37 112.48 87.21 112.46
  Q 84.51 112.21 84.51 114.74
  Q 84.53 122.37 84.48 130.51
  Q 84.46 134.66 81.95 131.35
  L 70.26 115.95
  Q 69.39 114.80 69.80 116.17
  Z"
/>
<path fill="#1890ff" d="
  M 157.28 120.46
  C 157.26 118.69 157.16 116.83 157.24 115.04
  Q 157.35 112.54 154.87 112.40
  Q 154.44 112.37 154.44 111.94
  L 154.44 111.67
  Q 154.45 111.51 154.60 111.51
  L 162.47 111.51
  A 0.41 0.41 0.0 0 1 162.83 112.13
  Q 162.58 112.56 162.07 112.51
  A 1.82 1.80 3.5 0 0 160.06 114.27
  Q 159.96 120.73 159.99 128.46
  Q 160.00 131.08 162.67 131.22
  Q 162.91 131.23 162.91 131.47
  L 162.90 131.79
  Q 162.90 132.26 162.43 132.25
  L 154.51 132.25
  A 0.27 0.27 0.0 0 1 154.25 131.97
  L 154.25 131.67
  Q 154.26 131.29 154.64 131.28
  C 156.12 131.23 157.27 130.42 157.26 128.85
  Q 157.23 125.74 157.27 122.96
  Q 157.28 122.25 156.57 122.25
  L 147.25 122.25
  Q 146.25 122.25 146.25 123.25
  L 146.25 129.25
  Q 146.26 130.83 147.82 131.00
  Q 148.61 131.08 149.18 131.60
  Q 149.90 132.25 148.93 132.25
  L 140.76 132.24
  Q 140.52 132.24 140.54 132.00
  L 140.56 131.61
  A 0.38 0.38 0.0 0 1 140.93 131.26
  Q 143.39 131.18 143.44 128.75
  Q 143.60 121.39 143.41 114.57
  Q 143.35 112.41 141.18 112.46
  A 0.39 0.39 0.0 0 1 140.78 112.09
  L 140.77 111.78
  Q 140.75 111.51 141.02 111.51
  L 148.54 111.48
  A 0.44 0.43 -81.1 0 1 148.95 112.05
  L 148.85 112.35
  A 0.37 0.36 11.6 0 1 148.46 112.60
  Q 146.42 112.39 146.32 114.35
  Q 146.18 117.20 146.22 120.30
  Q 146.23 121.01 146.94 121.01
  L 156.74 121.01
  A 0.54 0.54 0.0 0 0 157.28 120.46
  Z"
/>
<path fill="#1890ff" d="
  M 29.21 130.22
  Q 27.15 132.92 23.94 132.36
  C 20.54 131.75 20.50 127.68 23.28 126.06
  Q 26.01 124.46 28.90 123.35
  A 0.95 0.95 0.0 0 0 29.50 122.60
  C 29.85 120.12 28.59 118.12 25.79 118.81
  A 1.06 1.06 0.0 0 0 25.02 119.57
  Q 24.72 120.67 23.91 121.49
  A 1.02 1.02 0.0 0 1 22.62 121.63
  Q 22.11 121.30 22.02 120.69
  Q 21.89 119.82 22.46 119.15
  Q 23.48 117.96 25.20 117.81
  C 28.83 117.50 32.54 117.51 32.29 122.45
  Q 32.10 126.31 32.39 129.98
  A 1.09 1.08 70.5 0 0 34.09 130.80
  Q 34.26 130.68 34.45 130.64
  Q 34.97 130.54 34.91 131.06
  Q 34.83 131.73 34.12 132.03
  Q 30.55 133.52 29.82 130.35
  Q 29.65 129.63 29.21 130.22
  Z
  M 28.45 124.68
  Q 26.11 125.29 24.44 127.59
  Q 23.26 129.21 24.86 130.42
  Q 25.75 131.09 27.28 130.35
  Q 28.79 129.62 29.28 128.01
  Q 29.74 126.52 29.44 124.69
  Q 29.35 124.08 28.82 124.39
  Q 28.60 124.51 28.45 124.68
  Z"
/>
<path fill="#1890ff" d="
  M 37.72 131.88
  Q 37.65 132.02 37.51 132.10
  Q 36.77 132.51 36.75 131.66
  Q 36.72 130.27 36.73 128.89
  Q 36.76 126.02 37.87 128.67
  C 38.71 130.65 41.07 132.46 43.00 130.74
  Q 44.69 129.22 42.82 127.78
  C 40.81 126.23 37.16 124.88 36.99 122.03
  C 36.77 118.39 39.96 116.84 43.04 118.11
  Q 43.51 118.30 44.03 118.21
  Q 44.14 118.19 44.25 118.13
  Q 44.94 117.77 44.99 118.56
  Q 45.07 119.99 44.94 121.25
  Q 44.82 122.53 44.17 121.42
  C 43.33 119.98 42.04 117.80 40.06 119.03
  A 1.94 1.93 45.3 0 0 40.05 122.30
  C 42.42 123.82 46.65 125.76 46.02 129.22
  C 45.38 132.72 41.16 133.13 38.62 131.62
  Q 38.04 131.28 37.72 131.88
  Z"
/>
<path fill="#1890ff" d="
  M 91.49 130.05
  Q 92.10 125.30 91.37 120.42
  Q 91.27 119.79 90.63 119.76
  L 89.31 119.68
  A 0.23 0.23 0.0 0 1 89.09 119.47
  L 89.05 119.16
  Q 88.98 118.64 89.50 118.54
  L 93.57 117.80
  Q 94.27 117.67 94.26 118.38
  Q 94.20 123.41 94.32 129.11
  Q 94.36 131.18 96.40 131.36
  A 0.46 0.45 76.1 0 1 96.74 131.57
  Q 96.95 131.92 96.76 132.13
  Q 96.66 132.25 96.51 132.25
  L 89.64 132.25
  Q 89.28 132.25 89.08 131.96
  Q 88.92 131.73 89.14 131.49
  Q 89.32 131.30 89.57 131.24
  L 90.62 131.00
  Q 91.39 130.83 91.49 130.05
  Z"
/>
<path fill="#1890ff" d="
  M 103.74 119.62
  C 106.29 117.06 110.33 116.99 112.59 119.47
  Q 113.00 119.92 113.02 120.54
  L 113.35 130.16
  Q 113.37 130.71 113.87 130.95
  Q 114.40 131.21 114.94 131.51
  Q 116.29 132.26 114.74 132.25
  L 108.41 132.24
  Q 108.07 132.24 108.16 131.91
  L 108.26 131.54
  Q 108.30 131.41 108.44 131.40
  Q 109.26 131.37 109.93 131.00
  Q 110.50 130.68 110.50 130.03
  L 110.50 122.45
  Q 110.50 119.67 107.78 119.11
  Q 107.21 118.99 106.67 119.16
  Q 103.32 120.21 103.27 123.33
  Q 103.23 126.47 103.24 129.99
  Q 103.25 130.56 103.73 130.85
  Q 104.46 131.28 105.27 131.41
  A 0.47 0.46 -83.7 0 1 105.65 131.89
  Q 105.64 132.06 105.50 132.14
  Q 105.42 132.20 105.32 132.20
  Q 101.99 132.29 98.43 132.23
  Q 98.07 132.23 98.18 131.89
  L 98.29 131.52
  Q 98.35 131.32 98.56 131.34
  Q 99.33 131.39 99.95 130.97
  Q 100.42 130.66 100.49 130.05
  Q 101.00 125.65 100.38 120.60
  Q 100.30 119.96 99.75 119.65
  Q 99.32 119.41 98.83 119.44
  Q 98.55 119.46 98.33 119.28
  Q 98.11 119.10 98.18 118.95
  Q 98.29 118.73 98.51 118.66
  Q 100.20 118.15 102.13 117.75
  Q 102.72 117.63 102.74 118.23
  L 102.78 119.24
  Q 102.82 120.53 103.74 119.62
  Z"
/>
<path fill="#1890ff" d="
  M 118.27 119.96
  Q 117.42 119.82 116.63 119.34
  Q 115.76 118.82 116.75 118.62
  L 121.01 117.75
  Q 121.79 117.60 121.78 118.39
  Q 121.68 124.50 121.80 132.00
  C 121.87 136.96 119.14 140.82 113.58 138.66
  A 1.89 1.84 88.5 0 1 112.57 137.68
  Q 111.75 135.78 113.45 135.48
  A 1.12 1.10 -20.4 0 1 114.59 135.99
  L 115.50 137.46
  A 1.57 1.57 0.0 0 0 117.41 138.09
  Q 118.93 137.49 118.96 135.90
  Q 119.06 129.02 118.99 120.81
  Q 118.98 120.08 118.27 119.96
  Z"
/>
<path fill="#1890ff" d="
  M 133.31 130.06
  Q 130.49 133.75 126.97 131.90
  Q 124.64 130.66 125.72 128.08
  C 126.76 125.60 130.39 124.47 132.82 123.48
  Q 133.86 123.06 133.75 121.95
  Q 133.36 118.01 129.98 118.87
  Q 129.40 119.02 129.16 119.55
  L 128.37 121.24
  A 0.98 0.98 0.0 0 1 127.27 121.78
  Q 126.75 121.67 126.39 121.28
  Q 125.67 120.53 126.20 119.64
  Q 127.15 118.03 129.03 117.83
  C 131.61 117.56 136.43 117.18 136.28 121.27
  Q 136.13 125.26 136.39 129.60
  A 1.37 1.37 0.0 0 0 138.05 130.85
  L 138.62 130.73
  Q 139.22 130.60 139.16 131.22
  Q 139.14 131.38 139.00 131.49
  C 137.25 132.97 134.30 133.04 133.84 130.19
  Q 133.73 129.52 133.31 130.06
  Z
  M 133.10 124.39
  C 131.29 125.21 129.12 126.10 128.27 128.04
  A 1.96 1.96 0.0 0 0 130.06 130.78
  C 133.11 130.80 133.94 127.22 133.73 124.76
  Q 133.67 124.14 133.10 124.39
  Z"
/>
<path fill="#1890ff" d="
  M 176.00 129.67
  Q 173.18 133.75 168.73 131.94
  C 167.25 131.34 166.63 129.89 166.58 128.38
  Q 166.43 124.53 166.51 120.55
  A 1.44 1.43 25.9 0 0 166.18 119.61
  Q 165.61 118.92 164.71 118.83
  Q 164.18 118.77 164.27 118.25
  Q 164.31 118.03 164.54 118.02
  Q 166.79 118.00 168.74 117.99
  Q 169.26 117.99 169.26 118.52
  Q 169.27 121.98 169.22 125.59
  C 169.19 127.29 169.26 130.13 171.30 130.69
  C 174.05 131.44 175.78 128.52 176.20 126.25
  Q 176.45 124.89 176.18 120.41
  Q 176.15 119.90 175.82 119.51
  Q 175.34 118.96 174.52 118.83
  Q 174.25 118.79 174.14 118.54
  Q 174.05 118.36 174.13 118.22
  Q 174.26 118.00 174.52 118.00
  Q 176.51 118.02 178.45 117.98
  A 0.54 0.53 89.0 0 1 179.00 118.52
  L 179.00 130.29
  A 0.73 0.71 -80.3 0 0 179.47 130.97
  Q 180.07 131.19 180.71 131.30
  Q 181.05 131.36 181.25 131.64
  Q 181.59 132.11 181.01 132.18
  L 177.50 132.55
  Q 176.87 132.62 176.77 131.99
  L 176.42 129.76
  Q 176.33 129.19 176.00 129.67
  Z"
/>
<ellipse fill="#ffffff" cx="0.00" cy="0.00" transform="translate(190.94,125.09) rotate(89.1)" rx="6.29" ry="4.22"/>
<path fill="#ffffff" d="
  M 28.45 124.68
  Q 28.60 124.51 28.82 124.39
  Q 29.35 124.08 29.44 124.69
  Q 29.74 126.52 29.28 128.01
  Q 28.79 129.62 27.28 130.35
  Q 25.75 131.09 24.86 130.42
  Q 23.26 129.21 24.44 127.59
  Q 26.11 125.29 28.45 124.68
  Z"
/>
<path fill="#ffffff" d="
  M 128.27 128.04
  C 129.12 126.10 131.29 125.21 133.10 124.39
  Q 133.67 124.14 133.73 124.76
  C 133.94 127.22 133.11 130.80 130.06 130.78
  A 1.96 1.96 0.0 0 1 128.27 128.04
  Z"
/>
</svg>
