<?xml version="1.0" encoding="UTF-8" standalone="no"?>
<!DOCTYPE svg PUBLIC "-//W3C//DTD SVG 1.1//EN" "http://www.w3.org/Graphics/SVG/1.1/DTD/svg11.dtd">
<svg xmlns="http://www.w3.org/2000/svg" version="1.1" viewBox="0.00 0.00 760.00 760.00">
<g stroke-width="2.00" fill="none" stroke-linecap="butt">
<path stroke="#8bc8ff" vector-effect="non-scaling-stroke" d="
  M 504.20 205.70
  Q 505.09 204.37 503.66 203.71
  A 0.76 0.76 0.0 0 0 502.59 204.29
  Q 502.39 205.70 504.20 205.70"
/>
<path stroke="#8bc8ff" vector-effect="non-scaling-stroke" d="
  M 475.0056 243.7772
  A 47.15 47.15 0.0 0 0 427.7734 196.7096
  L 324.0535 196.8906
  A 47.15 47.15 0.0 0 0 276.9859 244.1228
  L 276.9944 249.0028
  A 47.15 47.15 0.0 0 0 324.2266 296.0704
  L 427.9465 295.8894
  A 47.15 47.15 0.0 0 0 475.0141 248.6572
  L 475.0056 243.7772"
/>
<path stroke="#8bc8ff" vector-effect="non-scaling-stroke" d="
  M 455.8751 242.0910
  A 29.56 29.56 0.0 0 0 426.2121 212.6344
  L 325.4727 212.9860
  A 29.56 29.56 0.0 0 0 296.0161 242.6490
  L 296.0249 245.1890
  A 29.56 29.56 0.0 0 0 325.6879 274.6456
  L 426.4273 274.2940
  A 29.56 29.56 0.0 0 0 455.8839 244.6310
  L 455.8751 242.0910"
/>
<path stroke="#8bc8ff" vector-effect="non-scaling-stroke" d="
  M 363.3294 246.3877
  A 1.71 1.71 0.0 0 0 362.6994 244.0529
  L 334.1611 227.6426
  A 1.71 1.71 0.0 0 0 331.8263 228.2726
  L 323.8106 242.2123
  A 1.71 1.71 0.0 0 0 324.4406 244.5471
  L 352.9789 260.9574
  A 1.71 1.71 0.0 0 0 355.3137 260.3274
  L 363.3294 246.3877"
/>
<path stroke="#8bc8ff" vector-effect="non-scaling-stroke" d="
  M 419.6157 228.1698
  A 1.46 1.46 0.0 0 0 417.6241 227.6250
  L 388.6640 244.1436
  A 1.46 1.46 0.0 0 0 388.1191 246.1351
  L 396.2843 260.4502
  A 1.46 1.46 0.0 0 0 398.2759 260.9950
  L 427.2360 244.4764
  A 1.46 1.46 0.0 0 0 427.7809 242.4849
  L 419.6157 228.1698"
/>
</g>
<path fill="#1790ff" d="
  M 504.20 205.70
  Q 505.09 204.37 503.66 203.71
  A 0.76 0.76 0.0 0 0 502.59 204.29
  Q 502.39 205.70 504.20 205.70
  Q 503.18 206.51 503.58 207.97
  Q 507.05 220.88 508.53 232.48
  C 509.72 241.89 510.05 251.78 508.70 261.25
  Q 506.27 278.34 501.81 291.80
  Q 498.35 302.26 490.54 315.84
  Q 485.54 324.51 479.13 331.86
  C 462.13 351.33 439.51 367.33 414.83 374.39
  Q 395.35 379.97 376.07 379.77
  C 337.20 379.36 302.01 361.95 276.77 332.55
  Q 253.69 305.67 247.36 270.01
  C 246.31 264.07 246.04 257.74 245.76 251.66
  Q 244.79 230.55 251.38 208.82
  C 264.94 164.10 299.87 131.31 345.02 119.57
  C 352.58 117.61 360.66 116.44 368.50 116.46
  C 376.33 116.49 384.63 116.04 392.49 116.84
  C 395.90 117.20 399.17 117.41 402.54 118.20
  Q 422.58 122.88 435.79 129.35
  C 452.91 137.73 467.94 151.31 480.81 165.10
  Q 481.14 165.46 481.59 165.25
  C 482.72 164.73 483.58 163.96 483.42 162.62
  Q 482.39 153.50 483.27 147.44
  Q 484.96 135.67 492.03 126.75
  Q 500.38 116.21 511.63 110.30
  C 515.26 108.39 517.37 110.17 518.83 113.35
  Q 524.85 126.51 526.45 137.00
  C 528.12 147.86 525.19 159.12 518.12 167.46
  Q 512.94 173.55 508.45 177.47
  Q 506.88 178.83 507.45 180.50
  A 0.88 0.87 69.9 0 0 508.58 181.03
  Q 516.23 178.17 525.45 177.41
  C 535.87 176.55 547.00 180.42 554.44 186.96
  C 560.93 192.65 568.83 200.98 572.27 209.19
  Q 572.70 210.22 571.87 210.96
  Q 570.33 212.32 568.48 213.39
  Q 556.72 220.20 543.89 221.74
  C 530.35 223.36 516.42 216.35 507.31 206.68
  Q 505.86 205.14 504.20 205.70
  Z
  M 475.0056 243.7772
  A 47.15 47.15 0.0 0 0 427.7734 196.7096
  L 324.0535 196.8906
  A 47.15 47.15 0.0 0 0 276.9859 244.1228
  L 276.9944 249.0028
  A 47.15 47.15 0.0 0 0 324.2266 296.0704
  L 427.9465 295.8894
  A 47.15 47.15 0.0 0 0 475.0141 248.6572
  L 475.0056 243.7772
  Z"
/>
<path fill="#ffffff" d="
  M 475.0141 248.6572
  A 47.15 47.15 0.0 0 1 427.9465 295.8894
  L 324.2266 296.0704
  A 47.15 47.15 0.0 0 1 276.9944 249.0028
  L 276.9859 244.1228
  A 47.15 47.15 0.0 0 1 324.0535 196.8906
  L 427.7734 196.7096
  A 47.15 47.15 0.0 0 1 475.0056 243.7772
  L 475.0141 248.6572
  Z
  M 455.8751 242.0910
  A 29.56 29.56 0.0 0 0 426.2121 212.6344
  L 325.4727 212.9860
  A 29.56 29.56 0.0 0 0 296.0161 242.6490
  L 296.0249 245.1890
  A 29.56 29.56 0.0 0 0 325.6879 274.6456
  L 426.4273 274.2940
  A 29.56 29.56 0.0 0 0 455.8839 244.6310
  L 455.8751 242.0910
  Z"
/>
<path fill="#ffffff" d="
  M 504.20 205.70
  Q 502.39 205.70 502.59 204.29
  A 0.76 0.76 0.0 0 1 503.66 203.71
  Q 505.09 204.37 504.20 205.70
  Z"
/>
<path fill="#1790ff" d="
  M 455.8839 244.6310
  A 29.56 29.56 0.0 0 1 426.4273 274.2940
  L 325.6879 274.6456
  A 29.56 29.56 0.0 0 1 296.0249 245.1890
  L 296.0161 242.6490
  A 29.56 29.56 0.0 0 1 325.4727 212.9860
  L 426.2121 212.6344
  A 29.56 29.56 0.0 0 1 455.8751 242.0910
  L 455.8839 244.6310
  Z
  M 363.3294 246.3877
  A 1.71 1.71 0.0 0 0 362.6994 244.0529
  L 334.1611 227.6426
  A 1.71 1.71 0.0 0 0 331.8263 228.2726
  L 323.8106 242.2123
  A 1.71 1.71 0.0 0 0 324.4406 244.5471
  L 352.9789 260.9574
  A 1.71 1.71 0.0 0 0 355.3137 260.3274
  L 363.3294 246.3877
  Z
  M 419.6157 228.1698
  A 1.46 1.46 0.0 0 0 417.6241 227.6250
  L 388.6640 244.1436
  A 1.46 1.46 0.0 0 0 388.1191 246.1351
  L 396.2843 260.4502
  A 1.46 1.46 0.0 0 0 398.2759 260.9950
  L 427.2360 244.4764
  A 1.46 1.46 0.0 0 0 427.7809 242.4849
  L 419.6157 228.1698
  Z"
/>
<rect fill="#ffffff" x="-18.17" y="-9.75" transform="translate(343.57,244.30) rotate(29.9)" width="36.34" height="19.50" rx="1.71"/>
<rect fill="#ffffff" x="-18.13" y="-9.70" transform="translate(407.95,244.31) rotate(-29.7)" width="36.26" height="19.40" rx="1.46"/>
<path fill="#1790ff" d="
  M 202.10 473.24
  C 202.98 473.27 204.11 472.62 204.69 471.99
  Q 212.05 464.08 219.76 456.46
  Q 220.66 455.57 220.96 454.40
  Q 221.29 453.10 219.90 452.62
  Q 217.97 451.96 215.76 451.78
  Q 214.80 451.70 213.98 451.21
  Q 212.43 450.30 214.28 449.78
  Q 215.09 449.56 215.93 449.64
  Q 225.88 450.63 235.74 449.35
  A 1.21 1.20 -40.5 0 1 236.27 449.39
  Q 238.01 449.88 237.69 450.78
  A 0.40 0.39 -87.0 0 1 237.41 451.04
  C 231.57 452.50 228.82 453.93 224.97 457.81
  C 221.45 461.35 217.80 464.36 214.10 467.62
  Q 210.54 470.75 213.73 474.20
  Q 222.13 483.28 232.34 495.43
  Q 235.22 498.86 240.86 499.68
  Q 241.76 499.81 242.70 500.55
  Q 243.12 500.89 242.58 501.61
  A 0.89 0.87 -71.6 0 1 241.90 501.96
  Q 230.28 502.19 217.66 502.03
  Q 217.30 502.03 217.17 501.55
  A 0.85 0.85 0.0 0 1 217.57 500.58
  Q 219.52 499.49 221.36 498.05
  C 223.06 496.70 221.98 494.93 220.92 493.73
  Q 214.72 486.72 208.76 479.18
  C 207.13 477.12 204.65 476.46 202.31 477.98
  Q 201.91 478.24 201.78 478.70
  C 200.31 484.06 200.65 491.02 201.75 495.80
  C 202.45 498.89 206.87 499.62 209.47 500.57
  Q 213.69 502.11 209.20 502.02
  Q 203.98 501.90 198.75 502.26
  C 193.70 502.59 188.74 501.91 183.67 502.10
  Q 182.92 502.13 182.33 501.77
  A 0.65 0.65 0.0 0 1 182.52 500.59
  C 184.37 500.12 186.55 500.14 188.15 499.17
  Q 192.94 496.29 193.09 489.63
  Q 193.81 456.24 192.87 430.08
  Q 192.76 427.04 190.43 425.12
  A 2.20 2.20 0.0 0 0 188.99 424.63
  Q 185.68 424.71 182.85 423.19
  Q 181.39 422.41 183.01 422.09
  L 199.44 418.84
  Q 200.96 418.54 200.96 420.08
  L 200.92 472.01
  A 1.23 1.22 -89.0 0 0 202.10 473.24
  Z"
/>
<path fill="#1790ff" d="
  M 700.12 426.62
  C 699.23 424.47 695.41 423.92 693.32 423.31
  Q 690.78 422.57 693.37 422.01
  L 707.96 418.90
  A 1.86 1.86 0.0 0 1 710.21 420.73
  L 710.07 452.25
  A 1.92 1.92 0.0 0 0 713.04 453.86
  C 719.18 449.82 724.88 446.50 732.50 448.82
  Q 740.38 451.21 746.89 458.68
  C 759.04 472.62 752.26 493.23 736.96 501.16
  C 727.65 505.99 718.66 503.25 710.81 497.27
  C 706.73 494.16 704.77 499.28 702.92 501.66
  Q 702.31 502.46 701.53 501.82
  Q 701.30 501.64 701.31 501.35
  Q 701.46 466.14 701.49 433.17
  Q 701.50 429.95 700.12 426.62
  Z
  M 725.7736 500.4491
  A 24.80 17.13 90.5 0 0 743.1193 475.7995
  A 24.80 17.13 90.5 0 0 726.2064 450.8509
  A 24.80 17.13 90.5 0 0 708.8607 475.5005
  A 24.80 17.13 90.5 0 0 725.7736 500.4491
  Z"
/>
<ellipse fill="#1790ff" cx="0.00" cy="0.00" transform="translate(353.22,426.51) rotate(31.2)" rx="5.46" ry="5.24"/>
<ellipse fill="#1790ff" cx="0.00" cy="0.00" transform="translate(457.77,426.47) rotate(41.1)" rx="5.39" ry="5.22"/>
<path fill="#1790ff" d="
  M 52.52 430.50
  C 52.12 433.54 51.56 436.65 51.55 439.74
  Q 51.45 470.89 51.60 491.45
  Q 51.62 493.79 52.94 495.88
  C 55.55 499.99 61.60 498.53 65.33 501.31
  Q 66.40 502.10 65.07 502.10
  L 28.47 502.11
  A 0.61 0.61 0.0 0 1 27.86 501.49
  L 27.86 501.13
  Q 27.87 500.15 28.84 500.00
  Q 41.03 498.12 41.16 487.88
  Q 41.47 464.37 41.34 433.04
  C 41.34 431.02 41.21 428.30 38.65 427.92
  Q 31.48 426.87 24.44 427.39
  C 18.75 427.80 13.08 430.29 11.26 436.19
  Q 10.33 439.21 9.43 442.59
  A 0.49 0.49 0.0 0 1 8.57 442.77
  C 8.26 442.37 7.93 441.51 7.95 441.01
  Q 8.33 433.54 8.00 425.87
  Q 7.97 425.15 8.70 425.13
  Q 28.25 424.61 47.69 425.09
  C 50.34 425.15 52.31 423.90 54.77 423.85
  Q 60.85 423.74 66.39 423.82
  Q 69.91 423.88 73.93 424.60
  Q 77.39 425.22 81.80 425.05
  Q 84.63 424.94 84.26 427.74
  Q 83.58 432.81 84.83 438.47
  Q 84.99 439.20 85.03 440.00
  Q 85.08 441.12 84.53 441.96
  Q 83.32 443.82 82.66 441.70
  C 81.71 438.64 80.48 432.73 77.49 431.08
  Q 69.00 426.39 59.65 427.36
  Q 55.61 427.79 53.15 429.48
  Q 52.61 429.85 52.52 430.50
  Z"
/>
<path fill="#1790ff" d="
  M 313.43 483.06
  Q 316.09 482.37 316.05 479.24
  Q 315.74 455.50 315.96 437.44
  C 316.05 429.74 313.94 428.06 306.69 426.90
  A 1.08 1.07 5.2 0 1 305.78 425.82
  L 305.79 425.45
  A 0.56 0.56 0.0 0 1 306.37 424.89
  Q 318.67 425.17 331.34 424.87
  Q 332.31 424.85 332.77 425.71
  L 332.93 426.01
  A 0.34 0.34 0.0 0 1 332.75 426.49
  Q 330.63 427.28 328.46 427.27
  C 323.47 427.25 320.75 430.56 320.74 435.74
  Q 320.70 465.49 320.67 496.31
  Q 320.67 499.76 319.71 502.98
  A 1.53 1.53 0.0 0 1 317.27 503.73
  C 315.97 502.66 314.62 501.38 313.60 500.05
  Q 291.27 470.89 267.93 440.02
  Q 267.38 439.28 266.19 438.93
  A 1.33 1.33 0.0 0 0 264.50 440.39
  C 264.78 442.43 265.21 444.20 265.17 446.33
  Q 264.77 470.83 265.33 494.99
  A 2.63 2.61 12.8 0 0 266.77 497.26
  Q 270.21 498.98 273.41 500.23
  Q 277.60 501.88 273.10 501.98
  Q 261.87 502.24 249.92 501.99
  Q 249.40 501.98 249.16 501.52
  Q 249.00 501.21 249.07 500.87
  A 0.89 0.88 -88.0 0 1 249.80 500.18
  C 256.38 499.11 261.37 495.63 261.01 488.27
  C 260.14 470.88 260.40 453.50 260.36 435.61
  C 260.34 429.04 255.51 427.23 250.00 427.19
  Q 249.21 427.18 249.35 426.41
  L 249.43 425.97
  A 1.31 1.31 0.0 0 1 250.73 424.90
  L 267.39 425.06
  A 4.25 4.23 71.8 0 1 270.75 426.77
  L 312.52 482.74
  Q 312.87 483.21 313.43 483.06
  Z"
/>
<path fill="#1790ff" d="
  M 555.64 460.58
  Q 556.76 461.12 557.98 461.13
  Q 575.47 461.24 594.09 461.16
  Q 599.24 461.14 599.06 456.12
  Q 598.75 447.07 598.99 437.70
  C 599.18 430.66 596.18 427.57 589.25 426.80
  Q 588.23 426.69 588.00 425.69
  L 587.94 425.44
  A 0.41 0.40 83.2 0 1 588.33 424.94
  L 617.52 425.02
  A 0.57 0.54 61.8 0 1 617.85 425.13
  Q 619.53 426.40 617.58 426.79
  Q 615.49 427.22 613.35 427.62
  C 608.26 428.58 607.56 433.71 607.55 438.00
  Q 607.50 464.28 607.54 489.99
  C 607.54 493.38 609.16 497.59 612.63 498.79
  Q 615.39 499.74 618.72 500.28
  A 0.32 0.32 0.0 0 1 618.96 500.74
  L 618.76 501.17
  A 1.48 1.46 -77.3 0 1 617.43 502.02
  L 588.42 502.17
  Q 587.58 502.17 587.32 501.37
  L 587.20 500.99
  Q 587.03 500.48 587.57 500.40
  Q 599.19 498.73 599.15 487.38
  Q 599.11 477.98 599.10 467.25
  Q 599.10 463.98 595.83 463.99
  Q 578.70 464.03 560.51 464.06
  Q 558.02 464.07 556.21 465.23
  A 1.45 1.43 79.8 0 0 555.56 466.18
  Q 555.10 468.67 555.10 471.36
  Q 555.13 482.10 555.20 492.39
  C 555.24 498.89 560.69 498.77 565.25 500.03
  Q 566.32 500.33 566.83 501.00
  A 0.70 0.70 0.0 0 1 566.27 502.12
  L 536.11 502.10
  A 0.98 0.97 -89.7 0 1 535.14 501.11
  L 535.15 500.75
  A 0.63 0.63 0.0 0 1 535.74 500.13
  Q 542.28 499.66 545.09 494.66
  Q 546.42 492.29 546.62 485.44
  C 547.11 468.90 546.89 454.61 546.46 439.11
  C 546.27 432.06 545.84 427.21 537.24 427.08
  Q 536.29 427.06 536.07 426.14
  Q 536.03 425.97 536.06 425.80
  Q 536.25 424.78 537.29 424.81
  Q 551.14 425.30 564.38 424.76
  Q 565.50 424.72 565.65 425.83
  Q 565.67 425.98 565.64 426.14
  Q 565.46 427.32 564.28 427.54
  C 562.44 427.87 560.54 427.72 558.83 428.64
  Q 556.00 430.15 555.72 433.65
  Q 554.75 445.85 555.11 459.77
  A 0.94 0.92 -78.6 0 0 555.64 460.58
  Z"
/>
<path fill="#1790ff" d="
  M 167.12 493.89
  C 169.22 490.31 166.32 486.68 163.28 484.82
  Q 156.97 480.96 151.03 476.89
  C 147.68 474.61 143.65 470.94 142.52 466.94
  C 140.57 460.04 142.65 452.98 148.94 449.77
  C 153.89 447.25 159.52 448.15 164.53 450.50
  C 165.93 451.15 167.47 450.75 168.75 450.06
  A 1.08 1.08 0.0 0 1 170.24 450.54
  Q 170.56 451.20 170.59 451.95
  Q 170.80 457.11 170.40 461.82
  Q 170.22 463.95 169.27 462.04
  C 166.79 457.02 164.12 451.79 158.18 450.92
  C 150.33 449.76 145.01 458.59 150.52 464.76
  C 152.55 467.02 155.84 468.32 158.47 469.98
  C 165.70 474.54 177.16 482.07 174.23 492.33
  C 171.84 500.71 163.16 504.25 154.98 502.67
  Q 152.21 502.14 148.03 500.09
  Q 146.52 499.34 145.31 499.54
  C 143.80 499.79 143.07 501.50 141.65 501.82
  Q 140.73 502.03 140.79 501.09
  Q 141.21 493.83 140.82 486.25
  A 0.43 0.43 0.0 0 1 141.58 485.95
  C 141.99 486.44 142.66 487.16 142.83 487.77
  Q 144.94 495.41 151.96 499.16
  C 158.11 502.45 163.91 499.39 167.12 493.89
  Z"
/>
<path fill="#1790ff" d="
  M 403.32 453.22
  C 396.60 455.84 391.81 461.47 391.78 468.91
  Q 391.74 480.80 391.56 493.59
  C 391.48 498.73 396.23 499.62 400.14 500.51
  Q 400.82 500.66 400.80 501.32
  A 0.75 0.75 0.0 0 1 400.05 502.06
  L 374.74 502.12
  A 0.66 0.66 0.0 0 1 374.08 501.44
  L 374.08 501.16
  Q 374.10 500.33 374.93 500.33
  C 381.54 500.36 383.48 495.47 383.80 489.78
  Q 384.76 472.93 382.99 458.00
  C 382.44 453.37 378.74 454.22 375.52 453.61
  A 1.20 1.15 80.9 0 1 374.68 452.98
  Q 374.17 451.98 375.04 451.78
  Q 381.86 450.24 388.16 448.88
  Q 390.30 448.41 389.99 450.58
  C 389.78 452.04 389.56 454.21 390.12 455.59
  A 2.17 2.17 0.0 0 0 393.65 456.34
  C 403.33 446.87 415.27 445.55 426.17 453.86
  C 427.95 455.22 428.87 457.07 428.95 459.32
  Q 429.58 475.99 430.27 493.79
  Q 430.36 496.20 431.41 497.79
  C 432.81 499.89 437.28 500.09 437.84 501.84
  A 0.56 0.56 0.0 0 1 437.20 502.57
  Q 434.96 502.13 432.67 502.12
  Q 423.01 502.05 413.12 502.25
  Q 412.19 502.27 412.13 501.35
  L 412.11 501.04
  A 0.50 0.49 83.3 0 1 412.51 500.53
  C 417.32 499.68 421.45 498.26 421.41 492.49
  Q 421.31 479.46 421.42 465.42
  Q 421.49 456.26 414.12 453.20
  Q 408.92 451.04 403.32 453.22
  Z"
/>
<path fill="#1790ff" d="
  M 508.02 493.23
  C 505.94 494.09 504.88 496.20 503.28 497.74
  Q 492.62 507.99 480.34 498.59
  C 478.90 497.49 478.15 495.22 477.99 493.47
  C 477.43 487.32 481.31 481.98 486.63 478.71
  Q 494.44 473.92 503.45 470.99
  C 507.58 469.65 510.24 466.73 509.49 462.29
  C 508.80 458.18 507.94 453.72 503.56 451.94
  C 499.66 450.36 492.04 450.10 489.94 455.01
  Q 488.76 457.76 487.34 460.56
  Q 485.79 463.59 482.93 461.67
  Q 482.86 461.62 482.39 461.31
  Q 479.51 459.37 480.60 456.08
  C 482.19 451.26 487.12 449.38 491.76 448.78
  C 498.81 447.87 504.71 447.94 511.51 450.89
  C 516.55 453.07 517.56 457.60 517.33 462.56
  Q 516.74 475.48 517.97 493.68
  C 518.34 499.14 523.43 498.57 527.26 497.92
  A 0.74 0.73 -14.1 0 1 528.09 498.41
  Q 528.46 499.54 527.41 500.18
  C 522.37 503.25 515.29 505.06 511.44 499.01
  C 510.52 497.57 510.44 495.68 509.87 494.05
  A 1.39 1.39 0.0 0 0 508.02 493.23
  Z
  M 486.11 489.43
  C 485.58 496.54 491.66 500.01 497.91 497.75
  C 507.58 494.26 511.01 482.73 509.57 473.32
  A 1.72 1.71 76.6 0 0 507.35 471.95
  C 499.60 474.43 486.78 480.56 486.11 489.43
  Z"
/>
<path fill="#1790ff" d="
  M 111.72 468.70
  A 1.41 1.39 2.6 0 0 112.81 467.72
  Q 114.19 463.10 113.01 458.06
  C 111.40 451.23 104.76 450.18 98.83 451.13
  C 97.13 451.39 95.46 452.03 94.88 453.82
  C 93.76 457.30 92.44 460.09 89.22 462.26
  Q 88.87 462.50 88.47 462.39
  Q 84.50 461.26 85.15 456.47
  Q 85.52 453.80 87.37 452.44
  C 89.85 450.62 92.67 449.19 95.78 448.85
  C 103.25 448.02 111.00 447.96 117.06 451.76
  C 122.23 455.00 122.36 462.18 122.11 467.57
  Q 121.45 482.46 122.85 495.28
  C 123.39 500.30 127.63 499.30 130.69 497.55
  Q 131.91 496.85 132.02 498.26
  L 132.06 498.78
  A 2.24 2.23 -15.4 0 1 130.83 500.94
  C 124.58 504.07 116.07 504.76 114.99 495.46
  A 1.90 1.89 -89.0 0 0 113.40 493.81
  C 112.43 493.66 111.26 494.28 110.62 495.01
  C 106.80 499.39 102.26 502.59 96.31 502.90
  Q 88.19 503.31 83.89 497.36
  C 80.99 493.33 82.67 486.24 85.45 482.92
  C 87.10 480.95 89.50 479.94 91.70 478.69
  C 93.77 477.52 95.08 475.51 97.13 474.49
  Q 102.88 471.62 109.12 469.14
  C 110.01 468.78 110.80 468.86 111.72 468.70
  Z
  M 112.15 471.80
  Q 105.98 473.70 101.04 476.57
  Q 97.91 478.39 93.30 483.51
  Q 90.50 486.62 90.34 489.64
  C 90.11 494.17 93.83 499.35 98.91 498.36
  Q 106.81 496.81 111.30 489.74
  C 114.17 485.22 114.33 477.53 113.04 472.31
  A 0.71 0.70 74.5 0 0 112.15 471.80
  Z"
/>
<path fill="#1790ff" d="
  M 348.78 457.96
  C 348.38 454.29 344.94 454.32 342.05 454.60
  A 1.87 1.83 -38.4 0 1 341.29 454.52
  Q 340.22 454.18 339.77 453.62
  A 1.22 1.22 0.0 0 1 340.51 451.65
  L 355.85 448.99
  A 1.71 1.69 87.1 0 1 357.83 450.79
  Q 357.73 452.24 357.69 453.62
  Q 357.13 471.87 358.02 492.18
  C 358.29 498.34 362.16 499.97 367.50 500.75
  A 0.45 0.45 0.0 0 1 367.88 501.24
  L 367.84 501.57
  A 0.64 0.63 -86.5 0 1 367.20 502.14
  L 340.78 502.05
  Q 339.97 502.05 339.74 501.27
  L 339.62 500.86
  A 0.55 0.55 0.0 0 1 340.07 500.16
  Q 348.46 498.93 349.07 493.79
  C 350.59 481.04 350.10 470.05 348.78 457.96
  Z"
/>
<path fill="#1790ff" d="
  M 435.39 518.51
  C 437.09 521.47 440.07 527.32 444.48 526.22
  Q 453.35 524.02 453.39 514.94
  Q 453.50 493.64 453.52 471.72
  C 453.53 466.90 453.96 462.22 453.26 457.10
  A 1.90 1.89 -0.2 0 0 451.61 455.47
  C 449.07 455.15 445.67 454.79 443.73 453.03
  A 0.79 0.78 -27.2 0 1 444.17 451.67
  C 448.48 451.18 452.75 450.66 456.74 449.41
  Q 458.60 448.83 460.41 448.79
  A 2.04 2.04 0.0 0 1 462.49 451.06
  Q 462.12 454.18 462.09 457.42
  Q 461.88 479.65 462.44 502.31
  Q 462.64 510.34 459.38 517.74
  C 454.11 529.70 442.58 530.95 431.77 526.01
  Q 429.97 525.18 429.23 523.56
  C 428.46 521.91 427.04 516.80 430.18 516.42
  Q 433.93 515.96 435.39 518.51
  Z"
/>
<path fill="#1790ff" d="
  M 679.82 496.61
  C 680.09 500.23 686.55 499.19 688.65 501.02
  Q 689.14 501.44 688.53 501.65
  Q 687.03 502.16 685.46 502.34
  Q 680.04 502.95 674.34 503.22
  A 1.17 1.17 0.0 0 1 673.13 502.23
  L 671.79 493.21
  A 1.50 1.49 -1.5 0 0 670.45 491.94
  Q 669.51 491.85 668.74 492.69
  C 667.06 494.50 665.72 496.45 663.85 498.08
  Q 654.14 506.57 641.57 500.60
  C 636.48 498.18 634.47 492.95 634.32 487.51
  Q 633.89 471.63 634.33 458.47
  C 634.52 452.50 629.93 452.62 625.88 450.99
  A 0.68 0.67 -56.4 0 1 625.66 449.88
  Q 626.22 449.33 627.01 449.44
  Q 634.05 450.43 640.98 449.87
  A 1.74 1.74 0.0 0 1 642.84 451.86
  Q 642.58 453.53 642.57 455.06
  Q 642.48 468.88 642.55 482.10
  Q 642.57 486.29 643.86 490.72
  C 646.43 499.52 655.94 500.54 662.24 495.10
  Q 670.61 487.89 671.31 476.07
  Q 671.89 466.35 670.94 457.29
  C 670.42 452.25 666.59 452.44 662.99 450.94
  A 0.36 0.36 0.0 0 1 662.79 450.49
  L 662.93 450.10
  Q 663.22 449.30 664.06 449.41
  Q 671.22 450.38 678.16 449.81
  A 1.49 1.48 87.9 0 1 679.76 451.30
  Q 679.63 471.00 679.64 491.75
  Q 679.64 494.26 679.82 496.61
  Z"
/>
</svg>
